<svg width="36" height="36" viewBox="0 0 36 36" fill="none" xmlns="http://www.w3.org/2000/svg">
<path d="M17.25 12H30.294C31.2312 12 31.6998 12 32.0429 12.1513C33.5604 12.8203 32.882 14.5061 32.6267 15.7176C32.5808 15.9353 32.4315 16.1205 32.2224 16.2198C31.355 16.6314 30.7473 17.4121 30.5879 18.3201L29.699 23.3817C29.3079 25.6087 29.1743 28.7915 27.2226 30.3603C25.7907 31.5 23.7276 31.5 19.6013 31.5H16.3988C12.2724 31.5 10.2093 31.5 8.7774 30.3603C6.82578 28.7913 6.69207 25.6087 6.30099 23.3817L5.41211 18.3201C5.25266 17.4121 4.6451 16.6314 3.77762 16.2198C3.56844 16.1205 3.41928 15.9353 3.37341 15.7176C3.11811 14.5061 2.4396 12.8203 3.95718 12.1513C4.30026 12 4.76883 12 5.70596 12H11.25" stroke="black" stroke-width="1.5" stroke-linecap="round"/>
<path d="M21 18H15" stroke="black" stroke-width="1.5" stroke-linecap="round" stroke-linejoin="round"/>
<path d="M9.75 16.5L15 4.5M22.5 4.5L26.25 12" stroke="black" stroke-width="1.5" stroke-linecap="round"/>
</svg>
