<svg width="39" height="39" viewBox="0 0 39 39" fill="none" xmlns="http://www.w3.org/2000/svg">
<path d="M18.6875 13H32.8185C33.8338 13 34.3414 13 34.7131 13.1639C36.3571 13.8887 35.6221 15.715 35.3455 17.0274C35.2958 17.2632 35.1341 17.4639 34.9076 17.5714C33.9679 18.0173 33.3096 18.8632 33.1368 19.8468L32.1739 25.3302C31.7502 27.7428 31.6054 31.1907 29.4911 32.8903C27.9399 34.125 25.7049 34.125 21.2347 34.125H17.7653C13.2951 34.125 11.0601 34.125 9.50885 32.8903C7.3946 31.1906 7.24975 27.7428 6.82608 25.3302L5.86312 19.8468C5.69038 18.8632 5.03219 18.0173 4.09242 17.5714C3.86581 17.4639 3.70422 17.2632 3.65453 17.0274C3.37796 15.715 2.6429 13.8887 4.28695 13.1639C4.65862 13 5.16624 13 6.18145 13H12.1875" stroke="white" stroke-width="2.5" stroke-linecap="round"/>
<path d="M22.75 19.5H16.25" stroke="white" stroke-width="2.5" stroke-linecap="round" stroke-linejoin="round"/>
<path d="M10.5625 17.875L16.25 4.875M24.375 4.875L28.4375 13" stroke="white" stroke-width="2.5" stroke-linecap="round"/>
</svg>
