<svg width="15" height="15" viewBox="0 0 15 15" fill="none" xmlns="http://www.w3.org/2000/svg">
<g clip-path="url(#clip0_2588_4999)">
<path d="M8.79606 2.42841C9.26181 1.9238 9.49469 1.6715 9.74213 1.52433C10.3392 1.16922 11.0744 1.15818 11.6815 1.4952C11.9331 1.63487 12.1731 1.88007 12.6531 2.37047C13.1332 2.86087 13.3733 3.10607 13.5099 3.36308C13.8399 3.9832 13.8291 4.73424 13.4814 5.34419C13.3374 5.59698 13.0904 5.83486 12.5964 6.31063L6.71913 11.9714C5.78305 12.8731 5.315 13.3239 4.73004 13.5523C4.14508 13.7808 3.502 13.764 2.21585 13.7304L2.04086 13.7258C1.64932 13.7156 1.45354 13.7104 1.33974 13.5813C1.22594 13.4521 1.24148 13.2527 1.27255 12.8539L1.28943 12.6373C1.37688 11.5147 1.42061 10.9534 1.63982 10.4489C1.85903 9.94431 2.23715 9.53469 2.99339 8.71531L8.79606 2.42841Z" stroke="#878787" stroke-width="1.5" stroke-linejoin="round"/>
<path d="M8.125 2.5L12.5 6.875" stroke="#878787" stroke-width="1.5" stroke-linejoin="round"/>
<path d="M8.75 13.75H13.75" stroke="#878787" stroke-width="1.5" stroke-linecap="round" stroke-linejoin="round"/>
</g>
<defs>
<clipPath id="clip0_2588_4999">
<rect width="15" height="15" fill="white"/>
</clipPath>
</defs>
</svg>
