<svg width="34" height="34" viewBox="0 0 34 34" fill="none" xmlns="http://www.w3.org/2000/svg">
<path d="M31.1666 17.0003C31.1666 11.6577 31.1666 8.98645 29.5069 7.32672C27.8472 5.66699 25.1759 5.66699 19.8333 5.66699H15.5833C12.8027 5.66699 11.4122 5.66699 10.2157 6.26524C9.01931 6.86348 8.18503 7.97576 6.51663 10.2003C4.06112 13.4744 2.83329 15.1115 2.83329 17.0003C2.83329 18.8892 4.06112 20.5263 6.51663 23.8003C8.18503 26.0249 9.01931 27.1371 10.2157 27.7354C11.4122 28.3337 12.8027 28.3337 15.5833 28.3337H19.8333C25.1759 28.3337 27.8472 28.3337 29.5069 26.6739C31.1666 25.0143 31.1666 22.3429 31.1666 17.0003Z" stroke="white" stroke-width="1.5"/>
<path d="M14.1666 12.75L22.6666 21.2494M14.1666 21.25L22.6666 12.7506" stroke="white" stroke-width="1.5" stroke-linecap="round" stroke-linejoin="round"/>
</svg>
