<svg width="68" height="68" viewBox="0 0 68 68" fill="none" xmlns="http://www.w3.org/2000/svg">
<g clip-path="url(#clip0_689_1407)">
<path d="M19.7982 48.0834C21.4697 49.7548 23.454 51.0807 25.6379 51.9853C27.8217 52.8899 30.1624 53.3555 32.5262 53.3555C34.8899 53.3555 37.2306 52.8899 39.4145 51.9853C41.5983 51.0807 43.5826 49.7548 45.2541 48.0834C46.9255 46.4119 48.2514 44.4276 49.156 42.2438C50.0606 40.0599 50.5262 37.7193 50.5262 35.3555C50.5262 32.9917 50.0606 30.651 49.156 28.4672C48.2514 26.2833 46.9255 24.299 45.2541 22.6275C43.5826 20.9561 41.5983 19.6302 39.4145 18.7256C37.2306 17.8211 34.8899 17.3555 32.5262 17.3555C30.1624 17.3555 27.8217 17.8211 25.6379 18.7256C23.454 19.6302 21.4697 20.9561 19.7982 22.6275C18.1268 24.299 16.8009 26.2833 15.8963 28.4672C14.9917 30.651 14.5262 32.9917 14.5262 35.3555C14.5262 37.7193 14.9917 40.0599 15.8963 42.2438C16.8009 44.4276 18.1268 46.4119 19.7982 48.0834Z" stroke="#004079" stroke-width="2" stroke-linecap="round" stroke-linejoin="round"/>
<path d="M28.2852 39.5977L36.2852 31.5977M28.2852 31.5977L36.2852 39.5977" stroke="#004079" stroke-width="2" stroke-linecap="round" stroke-linejoin="round"/>
</g>
<defs>
<clipPath id="clip0_689_1407">
<rect width="48" height="48" fill="white" transform="translate(0 33.9414) rotate(-45)"/>
</clipPath>
</defs>
</svg>
