<svg width="13" height="13" viewBox="0 0 13 13" fill="none" xmlns="http://www.w3.org/2000/svg">
<g clip-path="url(#clip0_1588_8531)">
<path d="M7.62329 2.10429C8.02694 1.66697 8.22877 1.44831 8.44322 1.32076C8.96067 1.013 9.59789 1.00343 10.124 1.29551C10.342 1.41657 10.55 1.62907 10.9661 2.05409C11.3821 2.4791 11.5902 2.69161 11.7087 2.91434C11.9946 3.45178 11.9852 4.10269 11.684 4.6313C11.5591 4.85039 11.345 5.05656 10.917 5.46888L5.82328 10.3749C5.01202 11.1563 4.60637 11.547 4.09941 11.745C3.59244 11.943 3.03511 11.9285 1.92044 11.8993L1.76879 11.8954C1.42945 11.8865 1.25978 11.8821 1.16115 11.7701C1.06252 11.6582 1.07599 11.4853 1.10292 11.1397L1.11754 10.952C1.19334 9.97907 1.23123 9.49265 1.42122 9.05537C1.6112 8.61808 1.9389 8.26307 2.59432 7.55295L7.62329 2.10429Z" stroke="#878787" stroke-width="1.5" stroke-linejoin="round"/>
<path d="M7.04163 2.16699L10.8333 5.95866" stroke="#878787" stroke-width="1.5" stroke-linejoin="round"/>
<path d="M7.58337 11.917H11.9167" stroke="#878787" stroke-width="1.5" stroke-linecap="round" stroke-linejoin="round"/>
</g>
<defs>
<clipPath id="clip0_1588_8531">
<rect width="13" height="13" fill="white"/>
</clipPath>
</defs>
</svg>
