<svg width="1512" height="491" viewBox="0 0 1512 491" fill="none" xmlns="http://www.w3.org/2000/svg">
<path d="M106.536 121.112H183.887V162.567H106.536V490.8H56.3232V162.567H0V121.112H56.3232V1.64844H106.536V121.112ZM384.114 138.464C437.377 138.464 480.085 156.492 509.475 187.606C538.859 218.715 554.868 262.842 554.868 314.93C554.868 366.692 538.858 410.654 509.474 441.681C480.085 472.712 437.377 490.741 384.114 490.741C330.851 490.741 288.144 472.712 258.755 441.681C229.37 410.654 213.359 366.692 213.359 314.93C213.359 262.842 229.369 218.715 258.754 187.606C288.143 156.493 330.851 138.464 384.114 138.464ZM660.833 372.437C660.833 393.569 666.015 413.144 678.703 427.429C691.378 441.698 711.641 450.798 742.037 450.798C809.063 450.798 853.087 406.601 853.087 358.062V146.966H899.604V481.602H853.087V434.557H852.75C832.439 462.077 794.105 489.442 730.932 489.442C699.236 489.442 670.083 481.082 648.84 463.389C627.578 445.68 614.316 418.683 614.316 381.584V146.966H660.833V372.437ZM732.407 488.737L733.874 488.723C734.057 488.72 734.239 488.716 734.421 488.713C733.753 488.724 733.081 488.733 732.407 488.737ZM1503.87 174.701L1503.72 174.893L1289.4 442.596V442.957H1511.51V481.602H1229.69V447.985L1229.85 447.793L1440 185.97V185.61H1240.8V146.966H1503.87V174.701ZM1028.3 481.583H981.781V0H1028.3V481.583ZM1156.41 481.583H1109.89V0H1156.41V481.583ZM384.114 177.108C343.006 177.108 312.499 192.383 292.255 217.198C271.995 242.033 261.958 276.492 261.958 314.93C261.958 353.04 271.994 387.335 292.254 412.088C312.499 436.822 343.006 452.098 384.114 452.098C425.222 452.098 455.73 436.822 475.975 412.088C496.235 387.335 506.269 353.04 506.27 314.93C506.27 276.492 496.234 242.033 475.974 217.198C455.729 192.383 425.222 177.108 384.114 177.108ZM292.676 413.692C293.157 414.264 293.645 414.828 294.137 415.389C293.888 415.105 293.641 414.821 293.395 414.535L292.676 413.692ZM505.342 340.84C505.403 340.365 505.465 339.89 505.522 339.414L505.543 339.241C505.479 339.775 505.411 340.308 505.342 340.84ZM506.885 320.974C506.814 323.454 506.699 325.916 506.542 328.359C506.699 325.92 506.814 323.461 506.885 320.984V320.974ZM324.423 189.966C324.033 190.17 323.646 190.378 323.26 190.587C324.102 190.132 324.953 189.685 325.812 189.25L324.423 189.966Z" fill="white"/>
</svg>
