<svg width="35" height="35" viewBox="0 0 35 35" fill="none" xmlns="http://www.w3.org/2000/svg">
<path d="M14.5837 8.7513C14.5837 5.52964 11.972 2.91797 8.75033 2.91797C5.52866 2.91797 2.91699 5.52964 2.91699 8.7513C2.91699 11.973 5.52866 14.5846 8.75033 14.5846C11.972 14.5846 14.5837 11.973 14.5837 8.7513Z" stroke="black" stroke-width="1.5"/>
<path d="M14.5837 26.2513C14.5837 23.0297 11.972 20.418 8.75033 20.418C5.52866 20.418 2.91699 23.0297 2.91699 26.2513C2.91699 29.4729 5.52866 32.0846 8.75033 32.0846C11.972 32.0846 14.5837 29.4729 14.5837 26.2513Z" stroke="black" stroke-width="1.5"/>
<path d="M32.0837 8.7513C32.0837 5.52964 29.4719 2.91797 26.2503 2.91797C23.0287 2.91797 20.417 5.52964 20.417 8.7513C20.417 11.973 23.0287 14.5846 26.2503 14.5846C29.4719 14.5846 32.0837 11.973 32.0837 8.7513Z" stroke="black" stroke-width="1.5"/>
<path d="M32.0837 26.2513C32.0837 23.0297 29.4719 20.418 26.2503 20.418C23.0287 20.418 20.417 23.0297 20.417 26.2513C20.417 29.4729 23.0287 32.0846 26.2503 32.0846C29.4719 32.0846 32.0837 29.4729 32.0837 26.2513Z" stroke="black" stroke-width="1.5"/>
</svg>
