<svg width="29" height="28" viewBox="0 0 29 28" fill="none" xmlns="http://www.w3.org/2000/svg">
<g clip-path="url(#clip0_689_1389)">
<path d="M3.625 14C3.625 15.3789 3.90629 16.7443 4.45281 18.0182C4.99933 19.2921 5.80038 20.4496 6.81021 21.4246C7.82005 22.3996 9.0189 23.1731 10.3383 23.7007C11.6577 24.2284 13.0719 24.5 14.5 24.5C15.9281 24.5 17.3423 24.2284 18.6617 23.7007C19.9811 23.1731 21.1799 22.3996 22.1898 21.4246C23.1996 20.4496 24.0007 19.2921 24.5472 18.0182C25.0937 16.7443 25.375 15.3789 25.375 14C25.375 12.6211 25.0937 11.2557 24.5472 9.98182C24.0007 8.70791 23.1996 7.55039 22.1898 6.57538C21.1799 5.60036 19.9811 4.82694 18.6617 4.29927C17.3423 3.77159 15.9281 3.5 14.5 3.5C13.0719 3.5 11.6577 3.77159 10.3383 4.29927C9.0189 4.82694 7.82005 5.60036 6.81021 6.57538C5.80038 7.55039 4.99933 8.70791 4.45281 9.98182C3.90629 11.2557 3.625 12.6211 3.625 14Z" stroke="white" stroke-width="2" stroke-linecap="round" stroke-linejoin="round"/>
<path d="M10.875 14.0013L13.2917 16.3346L18.125 11.668" stroke="white" stroke-width="2" stroke-linecap="round" stroke-linejoin="round"/>
</g>
<defs>
<clipPath id="clip0_689_1389">
<rect width="29" height="28" fill="white"/>
</clipPath>
</defs>
</svg>
