<svg width="40" height="40" viewBox="0 0 40 40" fill="none" xmlns="http://www.w3.org/2000/svg">
<path d="M19.1875 13.5H33.3185C34.3338 13.5 34.8414 13.5 35.2131 13.6639C36.8571 14.3887 36.1221 16.215 35.8455 17.5274C35.7958 17.7632 35.6341 17.9639 35.4076 18.0714C34.4679 18.5173 33.8096 19.3632 33.6368 20.3468L32.6739 25.8302C32.2502 28.2428 32.1054 31.6907 29.9911 33.3903C28.4399 34.625 26.2049 34.625 21.7347 34.625H18.2653C13.7951 34.625 11.5601 34.625 10.0089 33.3903C7.8946 31.6906 7.74975 28.2428 7.32608 25.8302L6.36312 20.3468C6.19038 19.3632 5.53219 18.5173 4.59242 18.0714C4.36581 17.9639 4.20422 17.7632 4.15453 17.5274C3.87796 16.215 3.1429 14.3887 4.78695 13.6639C5.15862 13.5 5.66624 13.5 6.68145 13.5H12.6875" stroke="white" stroke-width="2.5" stroke-linecap="round"/>
<path d="M23.25 20H16.75" stroke="white" stroke-width="2.5" stroke-linecap="round" stroke-linejoin="round"/>
<path d="M11.0625 18.375L16.75 5.375M24.875 5.375L28.9375 13.5" stroke="white" stroke-width="2.5" stroke-linecap="round"/>
</svg>
