<svg width="35" height="35" viewBox="0 0 35 35" fill="none" xmlns="http://www.w3.org/2000/svg">
<path d="M4.46359 22.1582L4.99623 19.1374C5.62576 15.567 5.94053 13.7819 7.18703 12.7249C8.43354 11.668 10.2241 11.668 13.8052 11.668H21.1922C24.7733 11.668 26.5638 11.668 27.8104 12.7249C29.0569 13.7819 29.3716 15.567 30.0011 19.1374L30.5339 22.1582C31.4049 27.0987 31.8405 29.569 30.4993 31.1914C29.1581 32.8138 26.6802 32.8138 21.7248 32.8138H13.2726C8.31712 32.8138 5.83938 32.8138 4.49814 31.1914C3.15689 29.569 3.59247 27.0987 4.46359 22.1582Z" stroke="black" stroke-width="1.5"/>
<path d="M10.9375 11.668L11.1822 8.73115C11.4561 5.44535 14.2028 2.91797 17.5 2.91797C20.7971 2.91797 23.5439 5.44535 23.8178 8.73115L24.0625 11.668" stroke="black" stroke-width="1.5"/>
<path d="M21.875 16.043C21.6854 18.1037 19.7833 19.6888 17.5 19.6888C15.2167 19.6888 13.3146 18.1037 13.125 16.043" stroke="black" stroke-width="1.5" stroke-linecap="round"/>
</svg>
