<svg width="57" height="57" viewBox="0 0 57 57" fill="none" xmlns="http://www.w3.org/2000/svg">
<path d="M17.4636 35.1582L17.9962 32.1374C18.6258 28.567 18.9405 26.7819 20.187 25.7249C21.4335 24.668 23.2241 24.668 26.8052 24.668H34.1922C37.7733 24.668 39.5638 24.668 40.8104 25.7249C42.0569 26.7819 42.3716 28.567 43.0011 32.1374L43.5339 35.1582C44.4049 40.0987 44.8405 42.569 43.4993 44.1914C42.1581 45.8138 39.6802 45.8138 34.7248 45.8138H26.2726C21.3171 45.8138 18.8394 45.8138 17.4981 44.1914C16.1569 42.569 16.5925 40.0987 17.4636 35.1582Z" stroke="black" stroke-width="1.5"/>
<path d="M23.9375 24.668L24.1822 21.7311C24.4561 18.4453 27.2028 15.918 30.5 15.918C33.7971 15.918 36.5439 18.4453 36.8178 21.7311L37.0625 24.668" stroke="black" stroke-width="1.5"/>
<path d="M34.875 29.043C34.6854 31.1037 32.7833 32.6888 30.5 32.6888C28.2167 32.6888 26.3146 31.1037 26.125 29.043" stroke="black" stroke-width="1.5" stroke-linecap="round"/>
<circle cx="15.5" cy="19.5" r="11.5" fill="#FEB93C"/>
<path d="M12.18 23.14C10.25 23.14 9.43 21.53 9.43 19.55C9.43 17.57 10.25 15.95 12.18 15.95C14.11 15.95 14.92 17.57 14.92 19.55C14.92 21.53 14.11 23.14 12.18 23.14ZM12.18 22.21C13.42 22.21 13.79 20.97 13.79 19.55C13.79 18.13 13.42 16.88 12.18 16.88C10.93 16.88 10.56 18.13 10.56 19.55C10.56 20.97 10.93 22.21 12.18 22.21ZM20.5377 23H15.6277C15.6277 21.7 16.4177 20.8 17.7377 19.98C18.9077 19.27 19.4977 18.98 19.4977 18.06C19.4977 17.49 19.2677 16.88 18.3277 16.88C17.2477 16.88 16.9077 17.58 16.9077 18.53H15.8077C15.8077 17.06 16.6077 15.95 18.3577 15.95C19.6077 15.95 20.6177 16.7 20.6177 18.02C20.6177 19.36 19.5277 20.05 18.5377 20.66C17.8577 21.06 17.2177 21.44 17.0177 22.05V22.07H20.5377V23Z" fill="white"/>
</svg>
