<svg width="37" height="37" viewBox="0 0 37 37" fill="none" xmlns="http://www.w3.org/2000/svg">
<path d="M21.584 22.8378V14.1628C21.584 9.31393 21.584 6.88951 20.1575 6.28616C18.731 5.6828 17.052 7.39713 13.6942 10.8258C11.9553 12.6014 10.9632 12.9946 8.48913 12.9946C6.32545 12.9946 5.24362 12.9946 4.46648 13.5248C2.85328 14.6254 3.09712 16.7767 3.09712 18.5003C3.09712 20.2239 2.85328 22.3751 4.46648 23.4759C5.24362 24.0061 6.32545 24.0061 8.48913 24.0061C10.9632 24.0061 11.9553 24.3994 13.6942 26.1749C17.052 29.6036 18.731 31.3179 20.1575 30.7145C21.584 30.1111 21.584 27.6867 21.584 22.8378Z" stroke="white" stroke-width="2" stroke-linecap="round" stroke-linejoin="round"/>
<path d="M27.75 15.417L33.9167 21.5837M27.75 21.5837L33.9167 15.417" stroke="white" stroke-width="2" stroke-linecap="round"/>
</svg>
