<svg width="430" height="145" viewBox="0 0 430 145" fill="none" xmlns="http://www.w3.org/2000/svg">
<path d="M37.708 33.7725H59.2773V53.333H37.708V144.862H15.7061V53.333H0V33.7725H15.7061V0.459961H37.708V33.7725ZM111.112 38.6113C126.905 38.6113 139.923 43.9828 148.978 53.5684C158.003 63.1236 162.728 76.4807 162.728 91.8203C162.727 107.075 157.999 120.386 148.974 129.916C139.92 139.475 126.905 144.846 111.112 144.846C95.3197 144.846 82.3042 139.475 73.251 129.916C64.2257 120.386 59.4962 107.075 59.4961 91.8203C59.4961 76.4806 64.2215 63.1236 73.2471 53.5684C82.3013 43.9828 95.3192 38.6113 111.112 38.6113ZM192.277 107.855C192.277 113.16 193.583 117.53 196.251 120.534C198.837 123.445 203.268 125.707 210.921 125.707C227.884 125.707 237.888 114.721 237.888 103.848V40.9824H258.859V142.297H237.888V134.91C231.006 140.372 221.171 144.483 207.824 144.483C198.336 144.483 189.208 141.984 182.373 136.292C175.425 130.505 171.306 121.793 171.306 110.407V40.9824H192.277V107.855ZM427.363 54.1211L426.485 55.2168L426.442 55.2686L426.443 55.2695L371.801 123.521H429.492V142.297H342.906V127.518L343.786 126.421L343.829 126.367L343.83 126.365L397.293 59.7588H346.003V40.9824H427.363V54.1211ZM294.746 142.292H273.775V0H294.746V142.292ZM330.471 142.292H309.499V0H330.471V142.292ZM208.679 129.644C208.88 129.655 209.083 129.665 209.287 129.673C209.083 129.665 208.88 129.655 208.679 129.644ZM208.004 129.599C208.144 129.609 208.285 129.619 208.427 129.628C208.285 129.619 208.144 129.609 208.004 129.599ZM207.315 129.54C207.451 129.553 207.588 129.565 207.726 129.576C207.588 129.565 207.451 129.553 207.315 129.54ZM206.623 129.466C206.75 129.481 206.878 129.495 207.007 129.509C206.878 129.495 206.75 129.481 206.623 129.466ZM205.082 129.248C205.507 129.32 205.941 129.382 206.385 129.438C205.941 129.382 205.507 129.32 205.082 129.248ZM199.174 127.494C199.336 127.568 199.501 127.639 199.667 127.709C199.501 127.639 199.336 127.568 199.174 127.494ZM111.112 57.3877C100.74 57.3877 93.4151 61.1894 88.5967 67.0957C83.6834 73.1183 81.0488 81.7459 81.0488 91.8203C81.0489 101.796 83.6792 110.378 88.5918 116.38C93.411 122.268 100.74 126.07 111.112 126.07C121.485 126.07 128.814 122.268 133.633 116.38C138.545 110.378 141.176 101.796 141.176 91.8203C141.176 81.7458 138.541 73.1182 133.628 67.0957C128.809 61.1894 121.484 57.3877 111.112 57.3877ZM195.891 125.584C196.031 125.687 196.174 125.788 196.318 125.888L195.891 125.583C195.75 125.48 195.612 125.376 195.476 125.27L195.891 125.584ZM135.491 120.328C135.539 120.277 135.588 120.227 135.636 120.175L135.653 120.155C135.6 120.214 135.545 120.27 135.491 120.328ZM188.294 108.955C188.316 109.661 188.36 110.36 188.427 111.05C188.359 110.355 188.316 109.65 188.294 108.938V108.955ZM241.834 105.376C241.84 105.288 241.848 105.2 241.853 105.112V105.103C241.847 105.194 241.84 105.285 241.834 105.376ZM143.75 79.2637C143.727 79.1706 143.703 79.0781 143.68 78.9854C143.703 79.0781 143.727 79.1706 143.75 79.2637ZM143.495 78.2656C143.464 78.1472 143.432 78.029 143.399 77.9111C143.432 78.029 143.464 78.1472 143.495 78.2656ZM143.186 77.1631C143.152 77.0506 143.12 76.9381 143.086 76.8262C143.12 76.9381 143.152 77.0506 143.186 77.1631ZM138.937 67.6348C138.603 67.1094 138.256 66.5962 137.896 66.0947C138.256 66.5963 138.603 67.1094 138.937 67.6348ZM137.48 65.5293C137.381 65.3971 137.28 65.2662 137.179 65.1357C137.28 65.2662 137.381 65.3971 137.48 65.5293ZM137.092 65.0234C136.972 64.8703 136.85 64.718 136.728 64.5674C136.85 64.718 136.972 64.8703 137.092 65.0234ZM93.0205 58.0137C92.8151 58.1378 92.6115 58.264 92.4102 58.3926C92.6116 58.264 92.8151 58.1378 93.0205 58.0137ZM93.668 57.6338C93.496 57.7318 93.3255 57.8316 93.1562 57.9326C93.3255 57.8315 93.496 57.7319 93.668 57.6338ZM95.332 56.7549C95.1013 56.8675 94.8728 56.9828 94.6465 57.1006C94.8729 56.9829 95.1013 56.8675 95.332 56.7549ZM199.736 127.737C199.897 127.804 200.059 127.871 200.224 127.935C200.059 127.871 199.897 127.804 199.736 127.737ZM139.229 68.1064L139.168 68.0039C139.103 67.8988 139.037 67.7946 138.972 67.6904C139.059 67.8282 139.144 67.9671 139.229 68.1064ZM137.838 66.0137C137.738 65.8756 137.637 65.7387 137.535 65.6025C137.637 65.7387 137.738 65.8756 137.838 66.0137Z" fill="white"/>
</svg>
