<svg width="26" height="26" viewBox="0 0 26 26" fill="none" xmlns="http://www.w3.org/2000/svg">
<path d="M10.8337 6.5013C10.8337 4.10807 8.89356 2.16797 6.50033 2.16797C4.10709 2.16797 2.16699 4.10807 2.16699 6.5013C2.16699 8.89454 4.10709 10.8346 6.50033 10.8346C8.89356 10.8346 10.8337 8.89454 10.8337 6.5013Z" stroke="black" stroke-width="1.5"/>
<path d="M10.8337 19.5013C10.8337 17.1081 8.89356 15.168 6.50033 15.168C4.10709 15.168 2.16699 17.1081 2.16699 19.5013C2.16699 21.8945 4.10709 23.8346 6.50033 23.8346C8.89356 23.8346 10.8337 21.8945 10.8337 19.5013Z" stroke="black" stroke-width="1.5"/>
<path d="M23.8337 6.5013C23.8337 4.10807 21.8935 2.16797 19.5003 2.16797C17.1071 2.16797 15.167 4.10807 15.167 6.5013C15.167 8.89454 17.1071 10.8346 19.5003 10.8346C21.8935 10.8346 23.8337 8.89454 23.8337 6.5013Z" stroke="black" stroke-width="1.5"/>
<path d="M23.8337 19.5013C23.8337 17.1081 21.8935 15.168 19.5003 15.168C17.1071 15.168 15.167 17.1081 15.167 19.5013C15.167 21.8945 17.1071 23.8346 19.5003 23.8346C21.8935 23.8346 23.8337 21.8945 23.8337 19.5013Z" stroke="black" stroke-width="1.5"/>
</svg>
