<svg width="26" height="26" viewBox="0 0 26 26" fill="none" xmlns="http://www.w3.org/2000/svg">
<path d="M3.31645 16.4607L3.71213 14.2167C4.17978 11.5644 4.41361 10.2383 5.33958 9.45313C6.26555 8.66797 7.59569 8.66797 10.256 8.66797H15.7434C18.4037 8.66797 19.7338 8.66797 20.6598 9.45313C21.5857 10.2383 21.8195 11.5644 22.2872 14.2167L22.6829 16.4607C23.33 20.1308 23.6536 21.9659 22.6573 23.1711C21.6609 24.3763 19.8202 24.3763 16.1391 24.3763H9.86028C6.17907 24.3763 4.33847 24.3763 3.34211 23.1711C2.34576 21.9659 2.66933 20.1308 3.31645 16.4607Z" stroke="black" stroke-width="1.5"/>
<path d="M8.125 8.66797L8.3068 6.48633C8.51021 4.04545 10.5507 2.16797 13 2.16797C15.4493 2.16797 17.4898 4.04545 17.6932 6.48633L17.875 8.66797" stroke="black" stroke-width="1.5"/>
<path d="M16.25 11.918C16.1092 13.4488 14.6962 14.6263 13 14.6263C11.3038 14.6263 9.89085 13.4488 9.75 11.918" stroke="black" stroke-width="1.5" stroke-linecap="round"/>
</svg>
